<svg viewBox="0 0 380 380" xmlns="http://www.w3.org/2000/svg" xmlns:svg="http://www.w3.org/2000/svg" version="1.1">
 <g class="layer">
  <title>background</title>
  <rect fill="none" height="152" id="canvas_background" width="382" x="-1" y="-1"/>
 </g>
 <g class="layer">
  <title>Layer 1</title>
  <g id="logo-group">
   <image id="icon_container" x="-323" y="-200"/>
   <g font-family="Quicksand" font-size="32px" font-style="normal" font-weight="600" id="slogan" text-anchor="middle"/>
   <g font-family="antre" font-size="72px" font-style="normal" font-weight="normal" id="title" text-anchor="middle">
    <g id="svg_2">
     <path d="m156.45,201.5c-6.13,-5.45 -16.69,-3.41 -21.8,2.72l-49.38,58.24c-4.77,5.79 -12.94,15.33 -18.39,18.39l55.85,-201.28c2.04,-7.83 -2.38,-16.01 -10.22,-18.05c-7.83,-2.38 -16.01,2.38 -18.05,10.22c-5.11,19.07 -10.56,37.12 -16.01,56.88c-6.81,24.86 -21.8,43.93 -34.74,58.58l-34.74,41.21c-5.45,6.13 -5.45,16.35 0.68,21.46c2.72,2.38 6.13,3.41 9.54,3.41c4.09,0 8.85,-2.04 11.92,-5.79l22.14,-26.56l-16.01,57.22c-1.36,5.45 -3.75,16.01 -1.7,24.18c2.04,8.17 10.9,14.99 18.05,14.99c14.99,0 32.01,-10.9 44.27,-24.86c11.24,-12.6 58.24,-68.8 58.58,-69.14c5.79,-6.47 6.13,-16.69 0,-21.8z" fill="#2f6295" id="path565111" stroke="#2f6295" stroke-miterlimit="2" stroke-width="0"/>
     <path d="m368.8,206.76c-6.13,-5.45 -15.33,-4.77 -20.43,1.36c-53.81,64.03 -57.9,69.48 -62.33,73.56c-3.41,3.07 -8.17,7.49 -14.99,7.49c-7.15,0 -11.92,-6.47 -16.35,-13.96c-5.11,-8.51 -9.54,-16.01 -13.28,-23.16c8.85,-2.04 17.37,-5.11 24.86,-9.2c18.05,-9.88 30.31,-24.18 35.42,-41.55c4.09,-15.33 1.7,-30.65 -7.49,-42.57c-10.22,-13.62 -27.59,-21.46 -47.34,-21.46c-12.94,0 -24.86,3.07 -35.76,9.2l19.07,-68.8c2.04,-7.83 -2.38,-16.01 -10.22,-18.05c-7.83,-2.38 -16.01,2.38 -18.05,10.22c-5.79,21.46 -11.24,40.19 -16.01,57.56c-6.81,24.86 -28.61,50.41 -27.59,49.38l-7.49,8.85l-29.29,34.74c-5.11,6.13 -4.77,16.35 1.36,21.46c2.72,2.38 5.45,3.41 8.85,3.41c4.09,0 8.17,-1.7 11.24,-5.11l17.37,-20.78c0,0 -21.12,77.31 -21.12,77.65c-2.38,8.85 3.07,18.39 14.3,18.39c6.13,0 12.26,-4.09 13.96,-10.9c5.45,-19.41 10.9,-38.83 16.01,-58.58c5.45,-18.73 10.56,-38.14 21.8,-54.83c11.24,-16.35 24.86,-24.52 41.55,-24.52c10.56,0 19.41,3.75 23.84,9.88c3.41,4.43 4.43,10.56 2.72,17.03c-3.41,11.92 -13.28,19.41 -21.12,23.5c-9.88,5.11 -22.14,7.49 -34.06,8.51c-11.92,1.02 -17.03,13.96 -12.26,22.82c6.81,12.94 13.28,24.52 23.5,41.89c12.26,20.78 22.14,27.93 43.59,27.93c19.75,0 32.01,-13.62 38.48,-21.12l58.92,-70.16c5.11,-6.13 4.77,-14.99 -1.7,-20.09z" fill="#7c91a8" id="path565117" stroke="#a3a9b1" stroke-miterlimit="2" stroke-width="0"/>
    </g>
   </g>
  </g>
 </g>
</svg>
